<?xml version="1.0" standalone="no"?>
<!DOCTYPE svg PUBLIC "-//W3C//DTD SVG 20010904//EN"
 "http://www.w3.org/TR/2001/REC-SVG-20010904/DTD/svg10.dtd">
<svg version="1.0" xmlns="http://www.w3.org/2000/svg"
 width="640.000000pt" height="640.000000pt" viewBox="0 0 640.000000 640.000000"
 preserveAspectRatio="xMidYMid meet">
<metadata>
Created by potrace 1.14, written by Peter Selinger 2001-2017
</metadata>
<g transform="translate(0.000000,640.000000) scale(0.100000,-0.100000)"
fill="#000000" stroke="none">
<path d="M2683 4782 c-7 -4 -48 -7 -92 -7 -45 1 -81 -1 -81 -4 0 -4 -44 -7
-98 -8 -87 -2 -141 -6 -252 -17 -19 -2 -35 -5 -35 -5 0 -1 -25 -4 -55 -6 -30
-3 -71 -7 -90 -10 -49 -8 -78 -12 -130 -19 -25 -3 -56 -8 -70 -11 -14 -3 -41
-8 -60 -10 -19 -2 -46 -7 -60 -10 -26 -7 -40 -10 -100 -21 -51 -9 -65 -12 -65
-14 0 -1 -10 -3 -22 -6 -13 -2 -33 -6 -45 -8 -13 -3 -23 -5 -23 -6 0 -2 -19
-7 -57 -15 -15 -3 -40 -10 -55 -16 -16 -6 -28 -9 -28 -8 0 1 -27 -6 -60 -16
-33 -9 -64 -18 -70 -20 -43 -10 -72 -19 -82 -28 -7 -5 -13 -7 -13 -4 0 2 -42
-11 -92 -30 -51 -18 -100 -36 -109 -38 -9 -2 -25 -8 -35 -13 -24 -13 -117 -56
-124 -57 -11 -2 -120 -54 -120 -58 0 -4 243 76 250 83 3 3 10 6 16 7 6 1 24 5
40 8 16 4 35 7 42 7 6 1 12 6 12 11 0 6 3 8 6 5 3 -3 21 -2 41 4 19 5 43 11
52 14 9 2 36 9 61 15 25 6 52 12 60 13 9 1 21 5 28 10 6 4 17 4 22 1 6 -4 17
-2 24 4 7 6 32 13 57 15 44 5 76 11 107 20 23 7 91 18 127 21 17 1 30 3 30 4
0 4 44 9 93 13 23 1 42 5 42 8 0 4 17 7 38 7 20 1 60 4 87 7 47 6 95 10 220
21 317 27 874 22 1160 -10 28 -3 70 -7 95 -9 25 -2 68 -7 95 -11 28 -4 59 -9
70 -10 11 -1 20 -3 20 -4 0 -1 18 -4 40 -6 22 -2 54 -6 70 -9 17 -3 46 -8 65
-10 19 -3 35 -5 35 -6 0 -2 38 -10 70 -14 17 -2 37 -6 45 -9 8 -3 29 -8 45
-10 38 -6 85 -16 107 -23 10 -3 30 -7 45 -10 16 -3 43 -9 61 -15 18 -6 43 -12
55 -14 12 -2 54 -13 92 -25 39 -12 81 -23 94 -25 13 -2 27 -7 30 -12 3 -4 15
-9 26 -11 11 -2 27 -6 35 -9 8 -3 20 -7 25 -8 56 -14 344 -133 366 -152 8 -7
21 -13 27 -13 6 0 31 -11 54 -24 24 -13 70 -38 103 -56 33 -18 81 -48 107 -67
26 -18 52 -33 57 -33 5 0 11 -3 13 -7 2 -5 29 -28 61 -52 113 -86 287 -280
287 -320 0 -5 4 -11 8 -13 13 -5 51 -93 71 -167 23 -84 25 -219 4 -301 -19
-72 -66 -170 -117 -245 -56 -82 -240 -265 -267 -265 -5 0 -8 -4 -5 -9 3 -5 -8
-14 -24 -21 -17 -7 -30 -15 -30 -19 0 -4 -17 -15 -37 -26 -21 -11 -41 -23 -44
-28 -3 -4 -21 -16 -39 -26 -19 -10 -36 -23 -38 -30 -2 -6 11 -3 30 9 18 11 41
20 51 20 9 0 17 4 17 9 0 5 12 12 27 16 15 3 30 10 33 13 3 4 30 18 60 32 30
14 69 35 87 47 18 12 33 20 33 17 0 -2 6 0 13 6 6 5 50 35 96 66 46 31 93 64
103 73 11 9 29 24 41 34 161 134 290 321 327 472 43 172 5 356 -109 530 -40
61 -210 245 -226 245 -4 0 -13 7 -21 15 -28 28 -141 105 -154 105 -8 0 -11 3
-7 6 3 3 -15 17 -41 31 -26 14 -49 28 -52 32 -3 3 -12 7 -20 9 -8 2 -16 8 -18
13 -2 5 -12 9 -22 9 -10 0 -20 4 -22 8 -3 8 -55 34 -195 98 -28 13 -55 24 -58
24 -4 0 -21 6 -38 14 -43 19 -113 45 -167 62 -25 8 -54 19 -65 23 -20 8 -131
43 -150 47 -5 1 -30 7 -55 14 -25 7 -52 14 -60 15 -8 2 -15 4 -15 5 0 2 -34
10 -60 14 -11 2 -20 4 -20 6 0 1 -13 4 -30 6 -16 3 -43 9 -60 14 -16 4 -61 14
-100 20 -38 7 -77 16 -86 20 -9 5 -28 7 -43 6 -14 -2 -26 0 -26 3 0 3 -10 7
-22 7 -13 1 -39 5 -58 8 -19 3 -53 8 -75 10 -22 3 -51 7 -64 10 -14 3 -50 8
-80 11 -31 2 -78 7 -106 10 -133 15 -230 21 -464 30 -91 3 -168 8 -173 11 -4
3 -8 0 -8 -6 0 -7 -6 -8 -19 0 -12 6 -22 6 -25 1 -3 -5 -21 -5 -41 -1 -21 5
-35 4 -35 -1 0 -6 -9 -5 -20 1 -11 6 -20 7 -20 1 0 -10 -32 -10 -40 1 -3 4
-11 4 -17 0z"/>
<path d="M2115 4513 c-34 -34 -87 -107 -91 -125 -1 -5 -2 -10 -3 -13 0 -3 -18
3 -38 14 -32 16 -43 17 -73 7 l-35 -11 -37 57 c-39 60 -67 91 -86 96 -16 3
-15 -13 1 -30 26 -27 76 -106 82 -131 6 -21 0 -35 -24 -66 -45 -57 -64 -106
-50 -129 41 -65 184 -84 282 -37 40 19 53 31 34 32 -12 1 -92 9 -162 18 -77 9
-107 14 -112 18 -2 3 7 21 21 41 22 33 25 35 31 16 9 -27 23 -26 21 3 -5 62
29 96 82 82 43 -10 59 -31 56 -70 -4 -44 12 -55 21 -15 l7 31 30 -43 c39 -54
37 -52 43 -46 6 5 -36 88 -57 115 -6 7 -7 24 -4 38 8 31 65 125 75 125 9 0 34
51 28 57 -3 2 -21 -13 -42 -34z"/>
<path d="M2365 4221 c-11 -5 -26 -6 -33 -3 -7 2 -19 -1 -27 -8 -8 -7 -15 -10
-15 -7 0 12 -134 -51 -139 -65 -3 -10 -1 -11 11 -1 8 7 18 10 21 6 4 -3 7 -2
7 4 0 10 64 29 83 25 4 -1 7 2 7 6 0 5 6 9 13 9 6 0 28 4 47 8 52 11 140 13
146 3 3 -4 10 -6 15 -3 5 4 9 3 9 -2 0 -4 13 -14 29 -21 33 -15 75 -73 88
-123 9 -32 9 -104 1 -139 -12 -47 -74 -132 -111 -152 -15 -7 -11 0 11 21 80
81 108 174 76 257 -32 83 -86 132 -156 140 -24 2 -49 7 -56 9 -7 3 -10 0 -7
-5 4 -6 -3 -9 -16 -7 -12 1 -23 -2 -25 -8 -2 -6 17 -11 46 -11 127 -3 200 -79
186 -195 -9 -70 -39 -124 -87 -156 -34 -22 -54 -27 -112 -29 -116 -3 -184 32
-422 219 -105 82 -255 177 -280 177 -8 0 -15 5 -15 12 0 6 -3 9 -6 5 -3 -3
-23 1 -44 8 -34 12 -137 21 -165 15 -5 -1 -14 -3 -20 -5 -5 -1 -13 -3 -17 -5
-5 -1 -11 -3 -15 -5 -19 -5 -49 -20 -60 -29 -7 -6 -18 -16 -25 -22 -81 -71
-106 -209 -56 -308 23 -48 76 -106 95 -106 7 0 13 -4 13 -10 0 -5 8 -10 18
-10 10 0 22 -4 27 -9 6 -6 21 -11 35 -13 14 -2 30 -6 35 -9 13 -7 100 -4 145
5 51 10 150 59 190 95 l35 31 -50 -27 -50 -26 50 49 c28 27 51 48 53 48 1 -1
17 12 34 28 l31 29 22 -21 c12 -11 25 -20 30 -20 4 0 22 -11 39 -23 102 -78
175 -122 225 -137 14 -5 47 -15 73 -23 27 -8 45 -11 42 -5 -4 6 1 6 13 -1 11
-6 23 -7 27 -4 3 4 19 8 34 9 15 1 38 6 52 11 14 6 30 12 35 14 13 5 42 28 75
60 96 94 100 274 8 380 -49 56 -167 93 -223 70z m-787 -113 c6 -1 12 -5 12
-10 0 -4 8 -8 18 -8 17 0 164 -81 188 -104 11 -10 51 -40 78 -59 8 -5 6 -10
-6 -17 -9 -6 -24 -17 -32 -25 -8 -8 -17 -15 -20 -15 -4 0 -24 -11 -46 -25 -22
-14 -40 -22 -40 -19 0 4 -7 1 -15 -6 -19 -16 -141 -45 -185 -45 -121 3 -200
69 -200 169 0 42 27 105 54 126 56 44 86 50 194 38z"/>
<path d="M2297 4159 c-9 -5 -23 -7 -30 -3 -8 5 -9 4 -2 -4 11 -12 65 -4 65 9
0 12 -11 11 -33 -2z"/>
<path d="M2106 4125 c-11 -8 -18 -17 -15 -19 2 -3 15 4 29 14 14 11 21 20 15
19 -5 0 -19 -6 -29 -14z"/>
<path d="M2060 4100 c-9 -6 -10 -10 -3 -10 6 0 15 5 18 10 8 12 4 12 -15 0z"/>
<path d="M3055 3757 c-11 -7 -22 -15 -25 -18 -3 -4 -45 -37 -95 -73 -49 -36
-101 -74 -115 -85 -14 -10 -50 -37 -80 -60 -30 -22 -59 -44 -65 -48 -5 -5 -80
-60 -165 -123 -85 -62 -160 -119 -166 -127 -6 -7 -14 -13 -17 -13 -9 0 -291
-212 -295 -222 -2 -4 -10 -8 -18 -8 -8 0 -14 -4 -14 -10 0 -5 -5 -10 -11 -10
-6 0 -17 -7 -25 -15 -20 -19 -30 -13 -91 56 -29 32 -53 58 -53 56 0 -1 -159
156 -352 350 -194 194 -355 353 -358 353 -4 0 -5 -1610 -1 -1660 1 -13 23 -15
136 -15 l135 0 1 30 c0 17 1 243 1 503 l0 474 260 -259 c143 -142 270 -268
281 -280 l22 -22 32 27 c37 32 108 91 135 112 11 8 32 26 46 40 15 14 37 32
48 40 12 8 45 36 75 62 30 25 101 85 159 133 58 48 125 104 150 125 25 21 65
54 90 75 122 101 141 120 173 184 19 36 58 111 87 166 29 55 71 134 92 175 22
41 44 80 50 87 13 16 0 16 -27 0z"/>
<path d="M3190 3763 c0 -3 158 -260 167 -273 2 -2 365 -5 806 -5 441 0 808 -4
815 -8 6 -5 12 -6 12 -2 0 7 66 -21 85 -37 82 -68 114 -125 120 -213 4 -53 0
-77 -17 -118 -36 -85 -132 -165 -208 -174 -14 -1 -219 -3 -457 -4 l-432 -1 0
-418 c0 -349 2 -419 14 -424 7 -2 16 0 19 7 2 7 5 8 5 2 1 -8 146 -11 231 -6
6 1 11 106 12 279 l3 277 310 1 c171 1 322 4 338 8 15 3 39 8 55 11 57 11 176
79 234 134 121 114 178 257 173 428 -6 177 -73 308 -217 426 -25 21 -50 37
-57 37 -6 0 -11 4 -11 9 0 5 -8 11 -17 14 -10 3 -38 13 -63 22 -25 9 -58 19
-75 22 -34 7 -1845 13 -1845 6z"/>
<path d="M2717 2925 c-410 -821 -417 -835 -389 -836 82 -3 274 1 281 5 4 3
124 237 267 521 142 283 261 515 264 515 3 0 59 -109 125 -242 l120 -242 144
-1 c78 0 148 3 154 7 7 4 -89 206 -264 557 -151 303 -276 550 -279 551 -3 0
-193 -376 -423 -835z"/>
<path d="M1822 3723 c-71 -100 -100 -183 -100 -284 0 -91 19 -156 69 -239 46
-78 135 -174 153 -167 23 9 133 154 161 213 38 79 46 109 50 179 6 102 -18
177 -87 273 -42 57 -57 68 -35 25 47 -90 65 -160 65 -253 0 -76 -20 -166 -46
-215 -35 -63 -95 -134 -114 -135 -26 -1 -129 148 -154 222 -34 103 -14 256 48
367 24 42 17 52 -10 14z"/>
<path d="M1915 3702 c-40 -8 -40 -23 0 -19 22 2 52 0 68 -4 15 -4 27 -4 27 2
0 5 -4 9 -10 9 -15 0 -23 2 -45 9 -11 4 -29 6 -40 3z"/>
<path d="M1850 3569 l-35 -18 69 5 c38 3 73 7 77 10 4 2 10 0 13 -4 3 -5 17
-8 31 -7 14 2 25 0 25 -4 0 -4 10 -7 23 -8 21 -2 21 -2 2 9 -11 6 -22 14 -25
17 -19 23 -136 22 -180 0z"/>
<path d="M1860 3429 l-35 -20 35 7 c45 9 130 9 153 -1 9 -4 17 -3 17 3 0 29
-123 37 -170 11z"/>
<path d="M1910 3301 c0 -4 -12 -12 -27 -18 l-28 -11 33 1 c17 1 32 5 32 10 0
4 6 5 13 0 6 -4 23 -8 37 -8 14 0 31 -5 39 -9 10 -6 12 -5 7 3 -14 22 -106 50
-106 32z"/>
<path d="M3536 2363 c-3 -3 25 -65 62 -139 l67 -134 112 -1 c62 0 129 -1 148
-1 19 -1 38 2 41 5 4 3 -24 67 -60 140 l-67 134 -149 1 c-82 0 -151 -2 -154
-5z"/>
<path d="M2617 1913 c-4 -3 -24 -7 -44 -7 -36 -1 -38 -3 -45 -41 -4 -22 -7
-59 -7 -83 -1 -40 0 -42 24 -36 51 13 185 11 205 -3 30 -21 26 -59 -8 -71 -29
-10 -193 -8 -211 2 -7 5 -11 -2 -11 -18 0 -15 8 -30 20 -36 20 -11 167 -15
205 -7 11 3 27 7 35 9 35 8 54 38 54 84 -2 79 -35 98 -177 98 l-88 0 3 26 c3
25 4 25 99 26 104 1 119 5 119 34 0 17 -8 19 -60 19 -32 0 -64 2 -69 5 -5 3
-12 0 -14 -6 -4 -10 -7 -10 -14 0 -5 7 -12 9 -16 5z"/>
<path d="M2962 1894 c-23 -16 -23 -20 -20 -141 3 -140 4 -141 80 -141 26 -1
52 -3 57 -6 5 -4 12 0 15 6 5 11 7 11 12 0 3 -6 11 -9 17 -5 6 3 34 5 63 4 83
-4 92 10 90 151 -1 76 -5 120 -14 130 -19 23 -268 25 -300 2z m238 -40 c13 -3
15 -20 14 -91 -1 -49 -2 -90 -3 -93 -1 -5 -181 -6 -202 -1 -4 0 -6 44 -6 96
l1 94 90 0 c50 -1 98 -3 106 -5z"/>
<path d="M3615 1886 c-8 -12 -13 -34 -11 -47 3 -13 5 -26 5 -29 1 -3 12 -7 26
-8 21 -1 25 2 25 27 l0 29 82 -1 c68 -2 83 -5 86 -18 3 -16 -76 -79 -99 -79
-5 0 -9 -4 -9 -10 0 -5 -5 -10 -12 -10 -6 0 -35 -16 -65 -37 -43 -30 -53 -42
-53 -65 l0 -29 149 3 c82 2 152 5 155 8 12 12 14 63 3 74 -21 20 -47 16 -47
-8 0 -20 -5 -21 -81 -22 l-80 0 28 21 c34 25 134 85 141 85 15 0 31 40 32 77
0 30 -5 45 -17 51 -10 6 -69 10 -130 11 -108 1 -113 0 -128 -23z"/>
<path d="M4042 1892 c-17 -17 -19 -34 -18 -140 0 -66 5 -124 9 -128 4 -5 49
-10 100 -11 51 -2 102 -5 114 -7 12 -2 25 2 28 8 3 7 7 7 11 -2 5 -10 9 -10
20 -1 8 6 14 8 14 4 0 -5 9 0 20 10 19 17 21 30 19 134 -1 68 -6 122 -13 132
-9 13 -35 16 -148 18 -123 2 -139 0 -156 -17z m255 -129 c0 -51 -2 -94 -5 -94
-4 -1 -51 -2 -104 -3 -81 -1 -98 1 -99 14 -4 39 -5 166 -2 172 2 3 49 6 106 5
l102 -2 2 -92z"/>
<path d="M1137 1852 c-27 -5 -34 -37 -32 -136 2 -89 12 -112 43 -101 6 2 12
-1 12 -8 0 -8 4 -7 10 3 8 12 11 13 19 1 5 -7 11 -9 14 -4 3 4 37 6 76 3 39
-3 71 -1 71 3 0 5 7 7 15 3 29 -11 46 23 43 82 l-3 56 -52 -1 c-104 -2 -103
-2 -103 -23 0 -12 6 -20 13 -19 6 1 29 1 50 0 33 -1 37 -4 37 -26 0 -17 -6
-25 -17 -26 -10 0 -42 -1 -71 -2 -28 -1 -52 1 -52 4 0 3 -10 4 -23 2 -21 -4
-22 -2 -21 64 1 37 2 71 3 75 2 11 181 8 181 -3 0 -5 14 -9 30 -9 23 0 30 5
30 19 0 37 -27 45 -144 46 -61 0 -119 -1 -129 -3z"/>
<path d="M1510 1733 l0 -123 130 0 c109 0 130 2 130 15 0 8 0 18 0 23 0 4 -9
7 -19 7 -11 0 -23 3 -26 7 -4 4 -15 4 -24 -1 -9 -4 -41 -7 -71 -6 -54 2 -55 2
-55 31 0 29 1 29 58 29 52 0 58 1 55 20 -2 11 -9 19 -16 18 -6 -2 -12 2 -12 8
0 5 -5 7 -11 4 -6 -4 -26 -8 -45 -9 -31 -1 -34 1 -34 26 0 15 5 30 10 33 6 3
10 1 10 -5 0 -6 5 -8 11 -4 16 10 129 10 129 0 0 -5 6 -3 13 3 8 6 17 8 20 4
4 -3 7 5 7 18 l0 24 -130 1 -130 0 0 -123z"/>
<path d="M1867 1853 c-4 -3 -7 -60 -7 -125 l0 -119 28 3 c27 3 27 4 28 76 1
39 2 74 3 77 1 6 137 -98 156 -119 6 -6 24 -19 42 -29 31 -17 32 -17 39 5 5
18 9 198 5 228 -1 3 -12 6 -26 6 -25 2 -25 0 -25 -71 0 -70 -13 -105 -26 -71
-3 9 -10 16 -15 16 -5 0 -42 26 -82 59 -72 58 -107 77 -120 64z"/>
<path d="M3398 1852 c-24 -5 -26 -81 -3 -83 72 -5 70 -6 73 42 3 44 2 46 -25
45 -15 0 -36 -2 -45 -4z"/>
<path d="M3414 1699 c-2 -5 -11 -6 -18 -3 -10 4 -13 -6 -12 -38 l1 -43 43 -3
43 -3 -3 47 c-3 41 -6 48 -26 49 -13 1 -25 -2 -28 -6z"/>
</g>
</svg>
